# xmcd CD database file
#
# Track frame offsets:
#	150
#	26747
#	40392
#	69652
#	87342
#	117920
#	162970
#	176450
#	190492
#	201540
#	244767
#	305780
#
# Disc length: 4267 seconds
#
# Revision: 7
# Processed by: cddbd v1.5.2PL0 Copyright (c) Steve Scherf et al.
# Submitted via: CDex 1.51
#
DISCID=b010a90c
DTITLE=Various Artist - Vol. 045 - Round Midnight  (Inspired By The Motion Picture)
DYEAR=1996
DGENRE=Jazz
TTITLE0=Miles Davis Quintet with John Coltrane - Round Midnight
TTITLE1=Charlie Parker Quartet - Now´s The Time
TTITLE2=Dexter Gordon Quartet - Autumn In New York
TTITLE3=Coleman Hawkins Quintet - How Long Has This Been Going On
TTITLE4=Thelonious Monk Quartet - Rhythm-A-Ning
TTITLE5=Dexter Gordon Quartet - Body And Soul
TTITLE6=Billie Holiday and her Orchestra - April In Paris
TTITLE7=Lester Young Quartet - Encore
TTITLE8=Bud Powell - Parisienne Thorofare
TTITLE9=Dexter Gordon Quartet - Cherokee
TTITLE10=Dexter Gordon Quartet - Cheese Cake
TTITLE11=Thelonious Monk Quintet - Round Midnight
EXTD=YEAR: 1996
EXTT0=
EXTT1=
EXTT2=
EXTT3=
EXTT4=
EXTT5=
EXTT6=
EXTT7=
EXTT8=
EXTT9=
EXTT10=
EXTT11=
PLAYORDER=
